<svg width="446" height="220" viewBox="0 0 446 220" fill="none" xmlns="http://www.w3.org/2000/svg">
<path d="M57.1184 88L35.5772 59.3956H29.7605V88H17.9032V22.5455H29.7605V49.456H32.7328L55.9998 22.5455H70.6056L44.7498 52.3963L71.7243 88H57.1184ZM79.7782 88V22.5455H104.324C109.352 22.5455 113.571 23.483 116.98 25.358C120.41 27.233 122.999 29.8111 124.746 33.0923C126.515 36.3523 127.399 40.0597 127.399 44.2145C127.399 48.4119 126.515 52.1406 124.746 55.4006C122.978 58.6605 120.368 61.228 116.916 63.103C113.464 64.9567 109.214 65.8835 104.164 65.8835H87.8961V56.1357H102.566C105.506 56.1357 107.914 55.6243 109.789 54.6016C111.664 53.5788 113.049 52.1726 113.944 50.3828C114.86 48.593 115.318 46.5369 115.318 44.2145C115.318 41.892 114.86 39.8466 113.944 38.0781C113.049 36.3097 111.653 34.9354 109.757 33.9553C107.882 32.9538 105.464 32.4531 102.502 32.4531H91.6355V88H79.7782ZM143.547 88.8949V78.9233H147.286C148.969 78.9233 150.354 78.6783 151.441 78.1882C152.528 77.6982 153.401 76.995 154.062 76.0788C154.744 75.1626 155.308 74.0973 155.756 72.8828L156.619 70.6776L133.224 22.5455H145.624L161.924 57.5739L176.018 22.5455H188.227L165.663 75.919C164.619 78.2202 163.415 80.3615 162.052 82.343C160.688 84.3033 158.909 85.8906 156.714 87.1051C154.541 88.2983 151.707 88.8949 148.213 88.8949H143.547ZM197.927 32.4851V22.5455H250.15V32.4851H229.919V88H218.158V32.4851H197.927ZM260.218 22.5455H271.979V67.1619H272.586L303.364 22.5455H314.007V88H302.15V43.4155H301.606L270.733 88H260.218V22.5455ZM324.05 32.4851V22.5455H376.273V32.4851H356.042V88H344.281V32.4851H324.05ZM386.341 88V22.5455H428.912V32.4851H398.198V50.255H426.707V60.1946H398.198V78.0604H429.167V88H386.341Z" fill="black"/>
<path d="M14.08 198V132.545H56.1716V142.485H25.9372V157.826H38.5615C43.5686 157.826 47.862 158.646 51.4415 160.287C55.0423 161.906 57.8016 164.197 59.7192 167.158C61.6368 170.12 62.5956 173.604 62.5956 177.609C62.5956 181.636 61.6368 185.184 59.7192 188.252C57.8016 191.299 55.0423 193.685 51.4415 195.411C47.862 197.137 43.5686 198 38.5615 198H14.08ZM25.9372 188.284H38.5615C41.2036 188.284 43.4408 187.783 45.2732 186.782C47.1056 185.781 48.4905 184.46 49.428 182.819C50.3868 181.178 50.8662 179.399 50.8662 177.482C50.8662 174.712 49.8009 172.357 47.6702 170.418C45.5608 168.458 42.5246 167.478 38.5615 167.478H25.9372V188.284ZM81.3722 198H68.716L91.7593 132.545H106.397L129.472 198H116.816L99.3339 145.969H98.8225L81.3722 198ZM81.7877 172.336H116.305V181.86H81.7877V172.336ZM138.094 198V132.545H162.639C167.668 132.545 171.886 133.483 175.295 135.358C178.726 137.233 181.315 139.811 183.062 143.092C184.83 146.352 185.714 150.06 185.714 154.214C185.714 158.412 184.83 162.141 183.062 165.401C181.293 168.661 178.683 171.228 175.231 173.103C171.78 174.957 167.529 175.884 162.479 175.884H146.212V166.136H160.881C163.822 166.136 166.229 165.624 168.104 164.602C169.979 163.579 171.364 162.173 172.259 160.383C173.175 158.593 173.633 156.537 173.633 154.214C173.633 151.892 173.175 149.847 172.259 148.078C171.364 146.31 169.969 144.935 168.072 143.955C166.197 142.954 163.779 142.453 160.817 142.453H149.951V198H138.094ZM197.124 198H184.468L207.511 132.545H222.149L245.224 198H232.568L215.086 145.969H214.574L197.124 198ZM197.54 172.336H232.057V181.86H197.54V172.336ZM253.846 198V132.545H295.937V142.485H265.703V157.826H278.327C283.334 157.826 287.628 158.646 291.207 160.287C294.808 161.906 297.567 164.197 299.485 167.158C301.402 170.12 302.361 173.604 302.361 177.609C302.361 181.636 301.402 185.184 299.485 188.252C297.567 191.299 294.808 193.685 291.207 195.411C287.628 197.137 283.334 198 278.327 198H253.846ZM265.703 188.284H278.327C280.969 188.284 283.206 187.783 285.039 186.782C286.871 185.781 288.256 184.46 289.194 182.819C290.152 181.178 290.632 179.399 290.632 177.482C290.632 174.712 289.566 172.357 287.436 170.418C285.326 168.458 282.29 167.478 278.327 167.478H265.703V188.284ZM321.138 198H308.482L331.525 132.545H346.163L369.238 198H356.582L339.1 145.969H338.588L321.138 198ZM321.553 172.336H356.07V181.86H321.553V172.336ZM377.859 198V132.545H389.717V160.255H420.047V132.545H431.936V198H420.047V170.195H389.717V198H377.859Z" fill="#6B70F8"/>
</svg>
