<svg width="641" height="220" viewBox="0 0 641 220" fill="none" xmlns="http://www.w3.org/2000/svg">
<path d="M62.6209 44.63H50.6678C50.3269 42.6697 49.6983 40.9332 48.7821 39.4205C47.8659 37.8864 46.726 36.5866 45.3624 35.5213C43.9988 34.456 42.4434 33.657 40.6962 33.1243C38.9703 32.5703 37.106 32.2933 35.1032 32.2933C31.5449 32.2933 28.3915 33.1882 25.6429 34.978C22.8944 36.7464 20.7424 39.3459 19.187 42.7763C17.6316 46.1854 16.8539 50.3509 16.8539 55.2727C16.8539 60.2798 17.6316 64.4986 19.187 67.929C20.7637 71.3381 22.9157 73.9162 25.6429 75.6634C28.3915 77.3892 31.5343 78.2521 35.0712 78.2521C37.0314 78.2521 38.8638 77.9964 40.5684 77.4851C42.2942 76.9524 43.839 76.1747 45.2026 75.152C46.5875 74.1293 47.7488 72.8722 48.6863 71.3807C49.6451 69.8892 50.3056 68.1847 50.6678 66.267L62.6209 66.331C62.1735 69.4418 61.204 72.3608 59.7125 75.0881C58.2424 77.8153 56.3141 80.223 53.9277 82.3111C51.5414 84.3778 48.7502 85.9972 45.5542 87.169C42.3581 88.3196 38.8105 88.8949 34.9114 88.8949C29.1586 88.8949 24.0236 87.5632 19.5066 84.8999C14.9895 82.2365 11.4313 78.3906 8.83185 73.3622C6.23242 68.3338 4.93271 62.304 4.93271 55.2727C4.93271 48.2202 6.24308 42.1903 8.86381 37.1832C11.4846 32.1548 15.0534 28.3089 19.5705 25.6456C24.0875 22.9822 29.2012 21.6506 34.9114 21.6506C38.5549 21.6506 41.9427 22.1619 45.0748 23.1847C48.2069 24.2074 50.998 25.7095 53.4483 27.6911C55.8986 29.6513 57.9121 32.0589 59.4888 34.9141C61.0868 37.7479 62.1309 40.9865 62.6209 44.63ZM73.4794 88V22.5455H116.05V32.4851H85.3366V50.255H113.845V60.1946H85.3366V78.0604H116.306V88H73.4794ZM167.363 88L145.821 59.3956H140.005V88H128.147V22.5455H140.005V49.456H142.977L166.244 22.5455H180.85L154.994 52.3963L181.968 88H167.363ZM187.146 32.4851V22.5455H239.369V32.4851H219.138V88H207.377V32.4851H187.146ZM305.023 55.2727C305.023 62.3253 303.702 68.3658 301.06 73.3942C298.439 78.4013 294.86 82.2365 290.322 84.8999C285.805 87.5632 280.68 88.8949 274.949 88.8949C269.217 88.8949 264.082 87.5632 259.544 84.8999C255.027 82.2152 251.447 78.3693 248.805 73.3622C246.184 68.3338 244.874 62.304 244.874 55.2727C244.874 48.2202 246.184 42.1903 248.805 37.1832C251.447 32.1548 255.027 28.3089 259.544 25.6456C264.082 22.9822 269.217 21.6506 274.949 21.6506C280.68 21.6506 285.805 22.9822 290.322 25.6456C294.86 28.3089 298.439 32.1548 301.06 37.1832C303.702 42.1903 305.023 48.2202 305.023 55.2727ZM293.102 55.2727C293.102 50.3082 292.324 46.1214 290.769 42.7124C289.235 39.282 287.104 36.6932 284.377 34.946C281.65 33.1776 278.507 32.2933 274.949 32.2933C271.39 32.2933 268.248 33.1776 265.52 34.946C262.793 36.6932 260.652 39.282 259.096 42.7124C257.562 46.1214 256.795 50.3082 256.795 55.2727C256.795 60.2372 257.562 64.4347 259.096 67.8651C260.652 71.2741 262.793 73.8629 265.52 75.6314C268.248 77.3786 271.39 78.2521 274.949 78.2521C278.507 78.2521 281.65 77.3786 284.377 75.6314C287.104 73.8629 289.235 71.2741 290.769 67.8651C292.324 64.4347 293.102 60.2372 293.102 55.2727ZM316.233 88V22.5455H340.779C345.807 22.5455 350.026 23.483 353.435 25.358C356.865 27.233 359.454 29.8111 361.201 33.0923C362.97 36.3523 363.854 40.0597 363.854 44.2145C363.854 48.4119 362.97 52.1406 361.201 55.4006C359.433 58.6605 356.823 61.228 353.371 63.103C349.919 64.9567 345.669 65.8835 340.619 65.8835H324.351V56.1357H339.021C341.961 56.1357 344.369 55.6243 346.244 54.6016C348.119 53.5788 349.504 52.1726 350.399 50.3828C351.315 48.593 351.773 46.5369 351.773 44.2145C351.773 41.892 351.315 39.8466 350.399 38.0781C349.504 36.3097 348.108 34.9354 346.212 33.9553C344.337 32.9538 341.919 32.4531 338.957 32.4531H328.091V88H316.233ZM449.883 22.5455V88H438.122V32.3892H409.485V88H397.724V22.5455H449.883ZM464.065 88V22.5455H488.611C493.639 22.5455 497.858 23.483 501.267 25.358C504.697 27.233 507.286 29.8111 509.033 33.0923C510.802 36.3523 511.686 40.0597 511.686 44.2145C511.686 48.4119 510.802 52.1406 509.033 55.4006C507.265 58.6605 504.655 61.228 501.203 63.103C497.751 64.9567 493.501 65.8835 488.451 65.8835H472.183V56.1357H486.853C489.793 56.1357 492.201 55.6243 494.076 54.6016C495.951 53.5788 497.336 52.1726 498.231 50.3828C499.147 48.593 499.605 46.5369 499.605 44.2145C499.605 41.892 499.147 39.8466 498.231 38.0781C497.336 36.3097 495.94 34.9354 494.044 33.9553C492.169 32.9538 489.751 32.4531 486.789 32.4531H475.923V88H464.065ZM521.985 22.5455H533.747V67.1619H534.354L565.132 22.5455H575.774V88H563.917V43.4155H563.374L532.5 88H521.985V22.5455ZM611.546 88.8949C606.944 88.8949 602.853 88.1065 599.273 86.5298C595.715 84.9531 592.902 82.7585 590.836 79.946C588.769 77.1335 587.672 73.8842 587.544 70.1982H599.561C599.667 71.9666 600.253 73.5114 601.319 74.8324C602.384 76.1321 603.801 77.1442 605.569 77.8686C607.338 78.593 609.319 78.9553 611.514 78.9553C613.858 78.9553 615.935 78.5504 617.746 77.7408C619.557 76.9098 620.974 75.7592 621.997 74.2891C623.02 72.8189 623.52 71.125 623.499 69.2074C623.52 67.2259 623.009 65.4787 621.965 63.9659C620.921 62.4531 619.408 61.2706 617.426 60.4183C615.466 59.5661 613.101 59.1399 610.331 59.1399H604.547V49.9993H610.331C612.611 49.9993 614.603 49.6051 616.308 48.8168C618.034 48.0284 619.387 46.9205 620.367 45.4929C621.347 44.044 621.826 42.3714 621.805 40.4751C621.826 38.6214 621.411 37.0128 620.559 35.6491C619.728 34.2642 618.545 33.1882 617.011 32.4212C615.498 31.6541 613.719 31.2706 611.674 31.2706C609.671 31.2706 607.817 31.6328 606.113 32.3572C604.408 33.0817 603.034 34.1151 601.99 35.4574C600.946 36.7784 600.392 38.3551 600.328 40.1875H588.918C589.003 36.5227 590.058 33.3054 592.082 30.5355C594.127 27.7443 596.855 25.571 600.264 24.0156C603.673 22.4389 607.498 21.6506 611.738 21.6506C616.105 21.6506 619.898 22.4709 623.115 24.1115C626.354 25.7308 628.858 27.9148 630.626 30.6634C632.395 33.4119 633.279 36.4482 633.279 39.772C633.3 43.4581 632.213 46.5476 630.019 49.0405C627.846 51.5334 624.99 53.1634 621.453 53.9304V54.4418C626.056 55.081 629.582 56.7855 632.032 59.5554C634.504 62.304 635.729 65.7237 635.708 69.8146C635.708 73.4794 634.664 76.7607 632.576 79.6584C630.509 82.5348 627.654 84.7933 624.01 86.4339C620.388 88.0746 616.233 88.8949 611.546 88.8949Z" fill="black"/>
<path d="M7.03409 198V132.545H18.8913V160.255H49.2216V132.545H61.1108V198H49.2216V170.195H18.8913V198H7.03409ZM82.4123 198H69.756L92.7994 132.545H107.437L130.512 198H117.856L100.374 145.969H99.8626L82.4123 198ZM82.8278 172.336H117.345V181.86H82.8278V172.336ZM161.458 198V132.545H203.55V142.485H173.315V157.826H185.939C190.947 157.826 195.24 158.646 198.819 160.287C202.42 161.906 205.18 164.197 207.097 167.158C209.015 170.12 209.974 173.604 209.974 177.609C209.974 181.636 209.015 185.184 207.097 188.252C205.18 191.299 202.42 193.685 198.819 195.411C195.24 197.137 190.947 198 185.939 198H161.458ZM173.315 188.284H185.939C188.581 188.284 190.819 187.783 192.651 186.782C194.483 185.781 195.868 184.46 196.806 182.819C197.765 181.178 198.244 179.399 198.244 177.482C198.244 174.712 197.179 172.357 195.048 170.418C192.939 168.458 189.903 167.478 185.939 167.478H173.315V188.284ZM228.75 198H216.094L239.137 132.545H253.775L276.85 198H264.194L246.712 145.969H246.2L228.75 198ZM229.166 172.336H263.683V181.86H229.166V172.336ZM285.472 198V132.545H310.017C315.045 132.545 319.264 133.483 322.673 135.358C326.104 137.233 328.692 139.811 330.44 143.092C332.208 146.352 333.092 150.06 333.092 154.214C333.092 158.412 332.208 162.141 330.44 165.401C328.671 168.661 326.061 171.228 322.609 173.103C319.158 174.957 314.907 175.884 309.857 175.884H293.589V166.136H308.259C311.2 166.136 313.607 165.624 315.482 164.602C317.357 163.579 318.742 162.173 319.637 160.383C320.553 158.593 321.011 156.537 321.011 154.214C321.011 151.892 320.553 149.847 319.637 148.078C318.742 146.31 317.347 144.935 315.45 143.955C313.575 142.954 311.157 142.453 308.195 142.453H297.329V198H285.472ZM344.502 198H331.846L354.889 132.545H369.527L392.602 198H379.946L362.464 145.969H361.952L344.502 198ZM344.918 172.336H379.435V181.86H344.918V172.336ZM401.224 198V132.545H443.315V142.485H413.081V157.826H425.705C430.712 157.826 435.006 158.646 438.585 160.287C442.186 161.906 444.945 164.197 446.863 167.158C448.78 170.12 449.739 173.604 449.739 177.609C449.739 181.636 448.78 185.184 446.863 188.252C444.945 191.299 442.186 193.685 438.585 195.411C435.006 197.137 430.712 198 425.705 198H401.224ZM413.081 188.284H425.705C428.347 188.284 430.584 187.783 432.417 186.782C434.249 185.781 435.634 184.46 436.572 182.819C437.53 181.178 438.01 179.399 438.01 177.482C438.01 174.712 436.944 172.357 434.814 170.418C432.704 168.458 429.668 167.478 425.705 167.478H413.081V188.284ZM468.516 198H455.86L478.903 132.545H493.541L516.616 198H503.96L486.477 145.969H485.966L468.516 198ZM468.931 172.336H503.448V181.86H468.931V172.336ZM525.237 198V132.545H537.094V160.255H567.425V132.545H579.314V198H567.425V170.195H537.094V198H525.237ZM592.21 198V132.545H634.781V142.485H604.067V160.255H632.576V170.195H604.067V188.06H635.037V198H592.21Z" fill="#6B70F8"/>
</svg>
